<mxfile host="app.diagrams.net" agent="Mozilla/5.0 (X11; Linux x86_64) AppleWebKit/537.36 (KHTML, like Gecko) Chrome/138.0.0.0 Safari/537.36" version="28.2.5">
  <diagram name="Страница — 1" id="mv64zrf2lBotsHVel3zt">
    <mxGraphModel dx="1682" dy="1003" grid="1" gridSize="10" guides="1" tooltips="1" connect="1" arrows="1" fold="1" page="1" pageScale="1" pageWidth="827" pageHeight="1169" math="0" shadow="0">
      <root>
        <mxCell id="0" />
        <mxCell id="1" parent="0" />
        <mxCell id="i0R5Lt4Jgc1w6IUPzWkG-1" value="Неавторизованный пользователь" style="shape=umlActor;verticalLabelPosition=bottom;verticalAlign=top;html=1;outlineConnect=0;" vertex="1" parent="1">
          <mxGeometry x="90" y="280" width="30" height="60" as="geometry" />
        </mxCell>
        <mxCell id="i0R5Lt4Jgc1w6IUPzWkG-4" value="Авторизованный пользователь" style="shape=umlActor;verticalLabelPosition=bottom;verticalAlign=top;html=1;outlineConnect=0;" vertex="1" parent="1">
          <mxGeometry x="90" y="680" width="30" height="60" as="geometry" />
        </mxCell>
        <mxCell id="i0R5Lt4Jgc1w6IUPzWkG-5" value="Администратор" style="shape=umlActor;verticalLabelPosition=bottom;verticalAlign=top;html=1;outlineConnect=0;" vertex="1" parent="1">
          <mxGeometry x="90" y="1380" width="30" height="60" as="geometry" />
        </mxCell>
        <mxCell id="i0R5Lt4Jgc1w6IUPzWkG-6" value="Зарегистрироваться" style="ellipse;whiteSpace=wrap;html=1;align=center;" vertex="1" parent="1">
          <mxGeometry x="130" y="20" width="140" height="40" as="geometry" />
        </mxCell>
        <mxCell id="i0R5Lt4Jgc1w6IUPzWkG-7" value="Войти" style="ellipse;whiteSpace=wrap;html=1;align=center;" vertex="1" parent="1">
          <mxGeometry x="140" y="80" width="100" height="40" as="geometry" />
        </mxCell>
        <mxCell id="i0R5Lt4Jgc1w6IUPzWkG-8" value="Просмотр контента" style="ellipse;whiteSpace=wrap;html=1;align=center;" vertex="1" parent="1">
          <mxGeometry x="150" y="140" width="100" height="40" as="geometry" />
        </mxCell>
        <mxCell id="i0R5Lt4Jgc1w6IUPzWkG-9" value="" style="endArrow=classic;html=1;rounded=0;" edge="1" parent="1">
          <mxGeometry width="50" height="50" relative="1" as="geometry">
            <mxPoint x="100" y="670" as="sourcePoint" />
            <mxPoint x="100" y="370" as="targetPoint" />
          </mxGeometry>
        </mxCell>
        <mxCell id="i0R5Lt4Jgc1w6IUPzWkG-11" value="" style="endArrow=none;html=1;rounded=0;entryX=0;entryY=0.5;entryDx=0;entryDy=0;" edge="1" parent="1" target="i0R5Lt4Jgc1w6IUPzWkG-6">
          <mxGeometry width="50" height="50" relative="1" as="geometry">
            <mxPoint x="110" y="270" as="sourcePoint" />
            <mxPoint x="340" y="370" as="targetPoint" />
          </mxGeometry>
        </mxCell>
        <mxCell id="i0R5Lt4Jgc1w6IUPzWkG-12" value="" style="endArrow=none;html=1;rounded=0;entryX=0;entryY=0.5;entryDx=0;entryDy=0;" edge="1" parent="1" target="i0R5Lt4Jgc1w6IUPzWkG-7">
          <mxGeometry width="50" height="50" relative="1" as="geometry">
            <mxPoint x="120" y="270" as="sourcePoint" />
            <mxPoint x="340" y="370" as="targetPoint" />
          </mxGeometry>
        </mxCell>
        <mxCell id="i0R5Lt4Jgc1w6IUPzWkG-13" value="" style="endArrow=none;html=1;rounded=0;exitX=0;exitY=0.5;exitDx=0;exitDy=0;" edge="1" parent="1" source="i0R5Lt4Jgc1w6IUPzWkG-8" target="i0R5Lt4Jgc1w6IUPzWkG-1">
          <mxGeometry width="50" height="50" relative="1" as="geometry">
            <mxPoint x="290" y="420" as="sourcePoint" />
            <mxPoint x="340" y="370" as="targetPoint" />
          </mxGeometry>
        </mxCell>
        <mxCell id="i0R5Lt4Jgc1w6IUPzWkG-14" value="Сбросить пароль" style="ellipse;whiteSpace=wrap;html=1;align=center;" vertex="1" parent="1">
          <mxGeometry x="185" y="200" width="140" height="40" as="geometry" />
        </mxCell>
        <mxCell id="i0R5Lt4Jgc1w6IUPzWkG-15" value="Сменить пароль" style="ellipse;whiteSpace=wrap;html=1;align=center;" vertex="1" parent="1">
          <mxGeometry x="247.5" y="410" width="140" height="40" as="geometry" />
        </mxCell>
        <mxCell id="i0R5Lt4Jgc1w6IUPzWkG-16" value="Выйти из аккаунта" style="ellipse;whiteSpace=wrap;html=1;align=center;" vertex="1" parent="1">
          <mxGeometry x="257.5" y="470" width="140" height="40" as="geometry" />
        </mxCell>
        <mxCell id="i0R5Lt4Jgc1w6IUPzWkG-17" value="Оставить комментарий" style="ellipse;whiteSpace=wrap;html=1;align=center;" vertex="1" parent="1">
          <mxGeometry x="484" y="500" width="140" height="40" as="geometry" />
        </mxCell>
        <mxCell id="i0R5Lt4Jgc1w6IUPzWkG-18" value="Модерация контента" style="ellipse;whiteSpace=wrap;html=1;align=center;" vertex="1" parent="1">
          <mxGeometry x="200" y="1370" width="140" height="40" as="geometry" />
        </mxCell>
        <mxCell id="i0R5Lt4Jgc1w6IUPzWkG-19" value="Удаление публикаций" style="ellipse;whiteSpace=wrap;html=1;align=center;" vertex="1" parent="1">
          <mxGeometry x="397.5" y="1330" width="140" height="40" as="geometry" />
        </mxCell>
        <mxCell id="i0R5Lt4Jgc1w6IUPzWkG-20" value="Удаление комментария" style="ellipse;whiteSpace=wrap;html=1;align=center;" vertex="1" parent="1">
          <mxGeometry x="400" y="1420" width="140" height="40" as="geometry" />
        </mxCell>
        <mxCell id="i0R5Lt4Jgc1w6IUPzWkG-21" value="Оценить пост" style="ellipse;whiteSpace=wrap;html=1;align=center;" vertex="1" parent="1">
          <mxGeometry x="489" y="560" width="140" height="40" as="geometry" />
        </mxCell>
        <mxCell id="i0R5Lt4Jgc1w6IUPzWkG-22" value="Оставить обратную связь автору" style="ellipse;whiteSpace=wrap;html=1;align=center;" vertex="1" parent="1">
          <mxGeometry x="257.5" y="530" width="140" height="40" as="geometry" />
        </mxCell>
        <mxCell id="i0R5Lt4Jgc1w6IUPzWkG-23" value="Публикант" style="shape=umlActor;verticalLabelPosition=bottom;verticalAlign=top;html=1;outlineConnect=0;" vertex="1" parent="1">
          <mxGeometry x="90" y="1015" width="30" height="60" as="geometry" />
        </mxCell>
        <mxCell id="i0R5Lt4Jgc1w6IUPzWkG-24" value="Публиковать пост" style="ellipse;whiteSpace=wrap;html=1;align=center;" vertex="1" parent="1">
          <mxGeometry x="382.5" y="880" width="140" height="40" as="geometry" />
        </mxCell>
        <mxCell id="i0R5Lt4Jgc1w6IUPzWkG-25" value="Редактировать пост" style="ellipse;whiteSpace=wrap;html=1;align=center;" vertex="1" parent="1">
          <mxGeometry x="380" y="935" width="140" height="50" as="geometry" />
        </mxCell>
        <mxCell id="i0R5Lt4Jgc1w6IUPzWkG-27" value="Удалить пост" style="ellipse;whiteSpace=wrap;html=1;align=center;" vertex="1" parent="1">
          <mxGeometry x="380" y="1010" width="140" height="50" as="geometry" />
        </mxCell>
        <mxCell id="i0R5Lt4Jgc1w6IUPzWkG-32" value="Фильтровать посты" style="ellipse;whiteSpace=wrap;html=1;align=center;" vertex="1" parent="1">
          <mxGeometry x="192.5" y="260" width="140" height="40" as="geometry" />
        </mxCell>
        <mxCell id="i0R5Lt4Jgc1w6IUPzWkG-33" value="Просмотр публикации" style="ellipse;whiteSpace=wrap;html=1;align=center;" vertex="1" parent="1">
          <mxGeometry x="344" y="70" width="140" height="40" as="geometry" />
        </mxCell>
        <mxCell id="i0R5Lt4Jgc1w6IUPzWkG-34" value="Просмотр таблицы соревнований" style="ellipse;whiteSpace=wrap;html=1;align=center;" vertex="1" parent="1">
          <mxGeometry x="360" y="140" width="140" height="40" as="geometry" />
        </mxCell>
        <mxCell id="i0R5Lt4Jgc1w6IUPzWkG-36" value="Сортировать таблицу соревнований" style="ellipse;whiteSpace=wrap;html=1;align=center;" vertex="1" parent="1">
          <mxGeometry x="210" y="310" width="140" height="60" as="geometry" />
        </mxCell>
        <mxCell id="i0R5Lt4Jgc1w6IUPzWkG-37" value="Просмотр каталога товаров" style="ellipse;whiteSpace=wrap;html=1;align=center;" vertex="1" parent="1">
          <mxGeometry x="261.5" y="580" width="170" height="60" as="geometry" />
        </mxCell>
        <mxCell id="i0R5Lt4Jgc1w6IUPzWkG-38" value="Добавить товар в корзину" style="ellipse;whiteSpace=wrap;html=1;align=center;" vertex="1" parent="1">
          <mxGeometry x="267.5" y="650" width="170" height="60" as="geometry" />
        </mxCell>
        <mxCell id="i0R5Lt4Jgc1w6IUPzWkG-39" value="Оформить заказ" style="ellipse;whiteSpace=wrap;html=1;align=center;" vertex="1" parent="1">
          <mxGeometry x="282.5" y="730" width="170" height="60" as="geometry" />
        </mxCell>
        <mxCell id="i0R5Lt4Jgc1w6IUPzWkG-40" value="Добавить товар в систему" style="ellipse;whiteSpace=wrap;html=1;align=center;" vertex="1" parent="1">
          <mxGeometry x="427.5" y="1500" width="145" height="50" as="geometry" />
        </mxCell>
        <mxCell id="i0R5Lt4Jgc1w6IUPzWkG-41" value="Работа с публикациями" style="ellipse;whiteSpace=wrap;html=1;align=center;" vertex="1" parent="1">
          <mxGeometry x="180" y="945" width="140" height="40" as="geometry" />
        </mxCell>
        <mxCell id="i0R5Lt4Jgc1w6IUPzWkG-42" value="Работа с таблицей соревнований" style="ellipse;whiteSpace=wrap;html=1;align=center;" vertex="1" parent="1">
          <mxGeometry x="157.5" y="1175" width="140" height="40" as="geometry" />
        </mxCell>
        <mxCell id="i0R5Lt4Jgc1w6IUPzWkG-43" value="Добавить соревнование" style="ellipse;whiteSpace=wrap;html=1;align=center;" vertex="1" parent="1">
          <mxGeometry x="395" y="1100" width="140" height="50" as="geometry" />
        </mxCell>
        <mxCell id="i0R5Lt4Jgc1w6IUPzWkG-44" value="Редактировать соревнование" style="ellipse;whiteSpace=wrap;html=1;align=center;" vertex="1" parent="1">
          <mxGeometry x="390" y="1160" width="150" height="60" as="geometry" />
        </mxCell>
        <mxCell id="i0R5Lt4Jgc1w6IUPzWkG-45" value="Удалить соревнование" style="ellipse;whiteSpace=wrap;html=1;align=center;" vertex="1" parent="1">
          <mxGeometry x="395" y="1230" width="150" height="60" as="geometry" />
        </mxCell>
        <mxCell id="i0R5Lt4Jgc1w6IUPzWkG-46" value="По почте" style="ellipse;whiteSpace=wrap;html=1;align=center;" vertex="1" parent="1">
          <mxGeometry x="360" y="20" width="100" height="40" as="geometry" />
        </mxCell>
        <mxCell id="i0R5Lt4Jgc1w6IUPzWkG-47" value="&amp;lt;&amp;lt;include&amp;gt;&amp;gt;" style="html=1;verticalAlign=bottom;labelBackgroundColor=none;endArrow=open;endFill=0;dashed=1;rounded=0;entryX=0;entryY=0.5;entryDx=0;entryDy=0;exitX=1;exitY=0.5;exitDx=0;exitDy=0;" edge="1" parent="1" source="i0R5Lt4Jgc1w6IUPzWkG-6" target="i0R5Lt4Jgc1w6IUPzWkG-46">
          <mxGeometry width="160" relative="1" as="geometry">
            <mxPoint x="310" y="130" as="sourcePoint" />
            <mxPoint x="380" y="140" as="targetPoint" />
          </mxGeometry>
        </mxCell>
        <mxCell id="i0R5Lt4Jgc1w6IUPzWkG-48" value="&amp;lt;&amp;lt;include&amp;gt;&amp;gt;" style="html=1;verticalAlign=bottom;labelBackgroundColor=none;endArrow=open;endFill=0;dashed=1;rounded=0;entryX=0;entryY=1;entryDx=0;entryDy=0;exitX=1;exitY=0;exitDx=0;exitDy=0;" edge="1" parent="1" source="i0R5Lt4Jgc1w6IUPzWkG-7" target="i0R5Lt4Jgc1w6IUPzWkG-46">
          <mxGeometry width="160" relative="1" as="geometry">
            <mxPoint x="230" y="340" as="sourcePoint" />
            <mxPoint x="390" y="340" as="targetPoint" />
          </mxGeometry>
        </mxCell>
        <mxCell id="i0R5Lt4Jgc1w6IUPzWkG-49" value="&amp;lt;&amp;lt;extend&amp;gt;&amp;gt;" style="html=1;verticalAlign=bottom;labelBackgroundColor=none;endArrow=open;endFill=0;dashed=1;rounded=0;exitX=0;exitY=0.5;exitDx=0;exitDy=0;entryX=1;entryY=0;entryDx=0;entryDy=0;" edge="1" parent="1" source="i0R5Lt4Jgc1w6IUPzWkG-33" target="i0R5Lt4Jgc1w6IUPzWkG-8">
          <mxGeometry width="160" relative="1" as="geometry">
            <mxPoint x="230" y="340" as="sourcePoint" />
            <mxPoint x="330" y="260" as="targetPoint" />
          </mxGeometry>
        </mxCell>
        <mxCell id="i0R5Lt4Jgc1w6IUPzWkG-50" value="&amp;lt;&amp;lt;extend&amp;gt;&amp;gt;" style="html=1;verticalAlign=bottom;labelBackgroundColor=none;endArrow=open;endFill=0;dashed=1;rounded=0;exitX=0;exitY=0.5;exitDx=0;exitDy=0;entryX=1;entryY=1;entryDx=0;entryDy=0;" edge="1" parent="1" source="i0R5Lt4Jgc1w6IUPzWkG-34" target="i0R5Lt4Jgc1w6IUPzWkG-8">
          <mxGeometry width="160" relative="1" as="geometry">
            <mxPoint x="230" y="340" as="sourcePoint" />
            <mxPoint x="390" y="340" as="targetPoint" />
          </mxGeometry>
        </mxCell>
        <mxCell id="i0R5Lt4Jgc1w6IUPzWkG-52" value="" style="endArrow=none;html=1;rounded=0;entryX=0;entryY=0.5;entryDx=0;entryDy=0;" edge="1" parent="1" source="i0R5Lt4Jgc1w6IUPzWkG-1" target="i0R5Lt4Jgc1w6IUPzWkG-14">
          <mxGeometry width="50" height="50" relative="1" as="geometry">
            <mxPoint x="590" y="540" as="sourcePoint" />
            <mxPoint x="640" y="360" as="targetPoint" />
          </mxGeometry>
        </mxCell>
        <mxCell id="i0R5Lt4Jgc1w6IUPzWkG-53" value="" style="endArrow=none;html=1;rounded=0;entryX=0;entryY=0.5;entryDx=0;entryDy=0;" edge="1" parent="1" source="i0R5Lt4Jgc1w6IUPzWkG-1" target="i0R5Lt4Jgc1w6IUPzWkG-32">
          <mxGeometry width="50" height="50" relative="1" as="geometry">
            <mxPoint x="450" y="493" as="sourcePoint" />
            <mxPoint x="515" y="420" as="targetPoint" />
          </mxGeometry>
        </mxCell>
        <mxCell id="i0R5Lt4Jgc1w6IUPzWkG-54" value="" style="endArrow=none;html=1;rounded=0;entryX=0;entryY=0.5;entryDx=0;entryDy=0;" edge="1" parent="1" source="i0R5Lt4Jgc1w6IUPzWkG-1" target="i0R5Lt4Jgc1w6IUPzWkG-36">
          <mxGeometry width="50" height="50" relative="1" as="geometry">
            <mxPoint x="350" y="465" as="sourcePoint" />
            <mxPoint x="422" y="440" as="targetPoint" />
          </mxGeometry>
        </mxCell>
        <mxCell id="i0R5Lt4Jgc1w6IUPzWkG-56" value="" style="endArrow=none;html=1;rounded=0;entryX=0;entryY=0.5;entryDx=0;entryDy=0;" edge="1" parent="1" target="i0R5Lt4Jgc1w6IUPzWkG-15">
          <mxGeometry width="50" height="50" relative="1" as="geometry">
            <mxPoint x="110" y="670" as="sourcePoint" />
            <mxPoint x="280" y="526" as="targetPoint" />
          </mxGeometry>
        </mxCell>
        <mxCell id="i0R5Lt4Jgc1w6IUPzWkG-57" value="" style="endArrow=none;html=1;rounded=0;exitX=0;exitY=0.5;exitDx=0;exitDy=0;" edge="1" parent="1" source="i0R5Lt4Jgc1w6IUPzWkG-16">
          <mxGeometry width="50" height="50" relative="1" as="geometry">
            <mxPoint x="170" y="630" as="sourcePoint" />
            <mxPoint x="120" y="670" as="targetPoint" />
          </mxGeometry>
        </mxCell>
        <mxCell id="i0R5Lt4Jgc1w6IUPzWkG-58" value="" style="endArrow=none;html=1;rounded=0;exitX=0;exitY=0.5;exitDx=0;exitDy=0;" edge="1" parent="1" source="i0R5Lt4Jgc1w6IUPzWkG-22">
          <mxGeometry width="50" height="50" relative="1" as="geometry">
            <mxPoint x="200" y="680" as="sourcePoint" />
            <mxPoint x="130" y="680" as="targetPoint" />
          </mxGeometry>
        </mxCell>
        <mxCell id="i0R5Lt4Jgc1w6IUPzWkG-59" value="" style="endArrow=none;html=1;rounded=0;entryX=0;entryY=0.5;entryDx=0;entryDy=0;" edge="1" parent="1" target="i0R5Lt4Jgc1w6IUPzWkG-37">
          <mxGeometry width="50" height="50" relative="1" as="geometry">
            <mxPoint x="130" y="700" as="sourcePoint" />
            <mxPoint x="280" y="746" as="targetPoint" />
          </mxGeometry>
        </mxCell>
        <mxCell id="i0R5Lt4Jgc1w6IUPzWkG-60" value="" style="endArrow=none;html=1;rounded=0;entryX=0;entryY=0.5;entryDx=0;entryDy=0;" edge="1" parent="1" target="i0R5Lt4Jgc1w6IUPzWkG-38">
          <mxGeometry width="50" height="50" relative="1" as="geometry">
            <mxPoint x="130" y="730" as="sourcePoint" />
            <mxPoint x="310" y="786" as="targetPoint" />
          </mxGeometry>
        </mxCell>
        <mxCell id="i0R5Lt4Jgc1w6IUPzWkG-61" value="" style="endArrow=none;html=1;rounded=0;entryX=0;entryY=0.5;entryDx=0;entryDy=0;" edge="1" parent="1" target="i0R5Lt4Jgc1w6IUPzWkG-39">
          <mxGeometry width="50" height="50" relative="1" as="geometry">
            <mxPoint x="130" y="740" as="sourcePoint" />
            <mxPoint x="350" y="816" as="targetPoint" />
          </mxGeometry>
        </mxCell>
        <mxCell id="i0R5Lt4Jgc1w6IUPzWkG-62" value="&amp;lt;&amp;lt;extend&amp;gt;&amp;gt;" style="html=1;verticalAlign=bottom;labelBackgroundColor=none;endArrow=open;endFill=0;dashed=1;rounded=0;exitX=0;exitY=0.5;exitDx=0;exitDy=0;entryX=1;entryY=0;entryDx=0;entryDy=0;" edge="1" parent="1" source="i0R5Lt4Jgc1w6IUPzWkG-17" target="i0R5Lt4Jgc1w6IUPzWkG-22">
          <mxGeometry width="160" relative="1" as="geometry">
            <mxPoint x="685" y="430" as="sourcePoint" />
            <mxPoint x="560" y="444" as="targetPoint" />
          </mxGeometry>
        </mxCell>
        <mxCell id="i0R5Lt4Jgc1w6IUPzWkG-63" value="&amp;lt;&amp;lt;extend&amp;gt;&amp;gt;" style="html=1;verticalAlign=bottom;labelBackgroundColor=none;endArrow=open;endFill=0;dashed=1;rounded=0;exitX=0;exitY=0.5;exitDx=0;exitDy=0;entryX=1;entryY=1;entryDx=0;entryDy=0;" edge="1" parent="1" source="i0R5Lt4Jgc1w6IUPzWkG-21" target="i0R5Lt4Jgc1w6IUPzWkG-22">
          <mxGeometry width="160" relative="1" as="geometry">
            <mxPoint x="825" y="490" as="sourcePoint" />
            <mxPoint x="700" y="504" as="targetPoint" />
          </mxGeometry>
        </mxCell>
        <mxCell id="i0R5Lt4Jgc1w6IUPzWkG-64" value="" style="endArrow=none;html=1;rounded=0;entryX=0;entryY=0.5;entryDx=0;entryDy=0;" edge="1" parent="1" target="i0R5Lt4Jgc1w6IUPzWkG-41">
          <mxGeometry width="50" height="50" relative="1" as="geometry">
            <mxPoint x="130" y="1030" as="sourcePoint" />
            <mxPoint x="382" y="890" as="targetPoint" />
          </mxGeometry>
        </mxCell>
        <mxCell id="i0R5Lt4Jgc1w6IUPzWkG-65" value="" style="endArrow=none;html=1;rounded=0;exitX=0;exitY=0.5;exitDx=0;exitDy=0;" edge="1" parent="1" source="i0R5Lt4Jgc1w6IUPzWkG-42">
          <mxGeometry width="50" height="50" relative="1" as="geometry">
            <mxPoint x="260" y="1100" as="sourcePoint" />
            <mxPoint x="130" y="1070" as="targetPoint" />
          </mxGeometry>
        </mxCell>
        <mxCell id="i0R5Lt4Jgc1w6IUPzWkG-66" value="&amp;lt;&amp;lt;extend&amp;gt;&amp;gt;" style="html=1;verticalAlign=bottom;labelBackgroundColor=none;endArrow=open;endFill=0;dashed=1;rounded=0;exitX=0;exitY=0.5;exitDx=0;exitDy=0;entryX=1;entryY=0;entryDx=0;entryDy=0;" edge="1" parent="1" source="i0R5Lt4Jgc1w6IUPzWkG-24" target="i0R5Lt4Jgc1w6IUPzWkG-41">
          <mxGeometry width="160" relative="1" as="geometry">
            <mxPoint x="662" y="836" as="sourcePoint" />
            <mxPoint x="550" y="820" as="targetPoint" />
          </mxGeometry>
        </mxCell>
        <mxCell id="i0R5Lt4Jgc1w6IUPzWkG-67" value="&amp;lt;&amp;lt;extend&amp;gt;&amp;gt;" style="html=1;verticalAlign=bottom;labelBackgroundColor=none;endArrow=open;endFill=0;dashed=1;rounded=0;exitX=0;exitY=0.5;exitDx=0;exitDy=0;entryX=1;entryY=0.5;entryDx=0;entryDy=0;" edge="1" parent="1" source="i0R5Lt4Jgc1w6IUPzWkG-25" target="i0R5Lt4Jgc1w6IUPzWkG-41">
          <mxGeometry width="160" relative="1" as="geometry">
            <mxPoint x="582" y="946" as="sourcePoint" />
            <mxPoint x="470" y="930" as="targetPoint" />
          </mxGeometry>
        </mxCell>
        <mxCell id="i0R5Lt4Jgc1w6IUPzWkG-68" value="&amp;lt;&amp;lt;extend&amp;gt;&amp;gt;" style="html=1;verticalAlign=bottom;labelBackgroundColor=none;endArrow=open;endFill=0;dashed=1;rounded=0;exitX=0;exitY=0.5;exitDx=0;exitDy=0;entryX=1;entryY=1;entryDx=0;entryDy=0;" edge="1" parent="1" source="i0R5Lt4Jgc1w6IUPzWkG-27" target="i0R5Lt4Jgc1w6IUPzWkG-41">
          <mxGeometry width="160" relative="1" as="geometry">
            <mxPoint x="662" y="1026" as="sourcePoint" />
            <mxPoint x="550" y="1010" as="targetPoint" />
          </mxGeometry>
        </mxCell>
        <mxCell id="i0R5Lt4Jgc1w6IUPzWkG-69" value="&amp;lt;&amp;lt;extend&amp;gt;&amp;gt;" style="html=1;verticalAlign=bottom;labelBackgroundColor=none;endArrow=open;endFill=0;dashed=1;rounded=0;exitX=0;exitY=0.5;exitDx=0;exitDy=0;entryX=1;entryY=0;entryDx=0;entryDy=0;" edge="1" parent="1" source="i0R5Lt4Jgc1w6IUPzWkG-43" target="i0R5Lt4Jgc1w6IUPzWkG-42">
          <mxGeometry width="160" relative="1" as="geometry">
            <mxPoint x="622" y="1316" as="sourcePoint" />
            <mxPoint x="510" y="1300" as="targetPoint" />
          </mxGeometry>
        </mxCell>
        <mxCell id="i0R5Lt4Jgc1w6IUPzWkG-70" value="&amp;lt;&amp;lt;extend&amp;gt;&amp;gt;" style="html=1;verticalAlign=bottom;labelBackgroundColor=none;endArrow=open;endFill=0;dashed=1;rounded=0;exitX=0;exitY=0.5;exitDx=0;exitDy=0;entryX=1;entryY=0.5;entryDx=0;entryDy=0;" edge="1" parent="1" source="i0R5Lt4Jgc1w6IUPzWkG-44" target="i0R5Lt4Jgc1w6IUPzWkG-42">
          <mxGeometry width="160" relative="1" as="geometry">
            <mxPoint x="792" y="1256" as="sourcePoint" />
            <mxPoint x="680" y="1240" as="targetPoint" />
          </mxGeometry>
        </mxCell>
        <mxCell id="i0R5Lt4Jgc1w6IUPzWkG-71" value="&amp;lt;&amp;lt;extend&amp;gt;&amp;gt;" style="html=1;verticalAlign=bottom;labelBackgroundColor=none;endArrow=open;endFill=0;dashed=1;rounded=0;exitX=0;exitY=0.5;exitDx=0;exitDy=0;entryX=1;entryY=1;entryDx=0;entryDy=0;" edge="1" parent="1" source="i0R5Lt4Jgc1w6IUPzWkG-45" target="i0R5Lt4Jgc1w6IUPzWkG-42">
          <mxGeometry width="160" relative="1" as="geometry">
            <mxPoint x="792" y="1276" as="sourcePoint" />
            <mxPoint x="680" y="1260" as="targetPoint" />
          </mxGeometry>
        </mxCell>
        <mxCell id="i0R5Lt4Jgc1w6IUPzWkG-72" value="Работа с товарами" style="ellipse;whiteSpace=wrap;html=1;align=center;" vertex="1" parent="1">
          <mxGeometry x="212.5" y="1550" width="145" height="50" as="geometry" />
        </mxCell>
        <mxCell id="i0R5Lt4Jgc1w6IUPzWkG-73" value="Редактировать товар в системе" style="ellipse;whiteSpace=wrap;html=1;align=center;" vertex="1" parent="1">
          <mxGeometry x="427.5" y="1560" width="145" height="50" as="geometry" />
        </mxCell>
        <mxCell id="i0R5Lt4Jgc1w6IUPzWkG-74" value="Удалить товар в системе" style="ellipse;whiteSpace=wrap;html=1;align=center;" vertex="1" parent="1">
          <mxGeometry x="440" y="1620" width="145" height="50" as="geometry" />
        </mxCell>
        <mxCell id="i0R5Lt4Jgc1w6IUPzWkG-75" value="" style="endArrow=none;html=1;rounded=0;exitX=0;exitY=0.5;exitDx=0;exitDy=0;" edge="1" parent="1" source="i0R5Lt4Jgc1w6IUPzWkG-18">
          <mxGeometry width="50" height="50" relative="1" as="geometry">
            <mxPoint x="257" y="1455" as="sourcePoint" />
            <mxPoint x="130" y="1390" as="targetPoint" />
          </mxGeometry>
        </mxCell>
        <mxCell id="i0R5Lt4Jgc1w6IUPzWkG-76" value="" style="endArrow=none;html=1;rounded=0;exitX=0;exitY=0.5;exitDx=0;exitDy=0;" edge="1" parent="1" source="i0R5Lt4Jgc1w6IUPzWkG-72">
          <mxGeometry width="50" height="50" relative="1" as="geometry">
            <mxPoint x="297" y="1615" as="sourcePoint" />
            <mxPoint x="130" y="1420" as="targetPoint" />
          </mxGeometry>
        </mxCell>
        <mxCell id="i0R5Lt4Jgc1w6IUPzWkG-77" value="&amp;lt;&amp;lt;extend&amp;gt;&amp;gt;" style="html=1;verticalAlign=bottom;labelBackgroundColor=none;endArrow=open;endFill=0;dashed=1;rounded=0;exitX=0;exitY=0.5;exitDx=0;exitDy=0;entryX=1;entryY=0;entryDx=0;entryDy=0;" edge="1" parent="1" source="i0R5Lt4Jgc1w6IUPzWkG-19" target="i0R5Lt4Jgc1w6IUPzWkG-18">
          <mxGeometry width="160" relative="1" as="geometry">
            <mxPoint x="438" y="1371" as="sourcePoint" />
            <mxPoint x="320" y="1320" as="targetPoint" />
          </mxGeometry>
        </mxCell>
        <mxCell id="i0R5Lt4Jgc1w6IUPzWkG-78" value="&amp;lt;&amp;lt;extend&amp;gt;&amp;gt;" style="html=1;verticalAlign=bottom;labelBackgroundColor=none;endArrow=open;endFill=0;dashed=1;rounded=0;exitX=0;exitY=0.5;exitDx=0;exitDy=0;entryX=1;entryY=1;entryDx=0;entryDy=0;" edge="1" parent="1" source="i0R5Lt4Jgc1w6IUPzWkG-20" target="i0R5Lt4Jgc1w6IUPzWkG-18">
          <mxGeometry width="160" relative="1" as="geometry">
            <mxPoint x="588" y="1481" as="sourcePoint" />
            <mxPoint x="470" y="1430" as="targetPoint" />
          </mxGeometry>
        </mxCell>
        <mxCell id="i0R5Lt4Jgc1w6IUPzWkG-79" value="&amp;lt;&amp;lt;extend&amp;gt;&amp;gt;" style="html=1;verticalAlign=bottom;labelBackgroundColor=none;endArrow=open;endFill=0;dashed=1;rounded=0;exitX=0;exitY=0.5;exitDx=0;exitDy=0;entryX=1;entryY=0;entryDx=0;entryDy=0;" edge="1" parent="1" source="i0R5Lt4Jgc1w6IUPzWkG-40" target="i0R5Lt4Jgc1w6IUPzWkG-72">
          <mxGeometry width="160" relative="1" as="geometry">
            <mxPoint x="728" y="1571" as="sourcePoint" />
            <mxPoint x="610" y="1520" as="targetPoint" />
          </mxGeometry>
        </mxCell>
        <mxCell id="i0R5Lt4Jgc1w6IUPzWkG-80" value="&amp;lt;&amp;lt;extend&amp;gt;&amp;gt;" style="html=1;verticalAlign=bottom;labelBackgroundColor=none;endArrow=open;endFill=0;dashed=1;rounded=0;exitX=0;exitY=0.5;exitDx=0;exitDy=0;entryX=1;entryY=0.5;entryDx=0;entryDy=0;" edge="1" parent="1" source="i0R5Lt4Jgc1w6IUPzWkG-73" target="i0R5Lt4Jgc1w6IUPzWkG-72">
          <mxGeometry width="160" relative="1" as="geometry">
            <mxPoint x="688" y="1641" as="sourcePoint" />
            <mxPoint x="570" y="1590" as="targetPoint" />
          </mxGeometry>
        </mxCell>
        <mxCell id="i0R5Lt4Jgc1w6IUPzWkG-81" value="&amp;lt;&amp;lt;extend&amp;gt;&amp;gt;" style="html=1;verticalAlign=bottom;labelBackgroundColor=none;endArrow=open;endFill=0;dashed=1;rounded=0;exitX=0;exitY=0.5;exitDx=0;exitDy=0;entryX=1;entryY=1;entryDx=0;entryDy=0;" edge="1" parent="1" source="i0R5Lt4Jgc1w6IUPzWkG-74" target="i0R5Lt4Jgc1w6IUPzWkG-72">
          <mxGeometry width="160" relative="1" as="geometry">
            <mxPoint x="598" y="1721" as="sourcePoint" />
            <mxPoint x="480" y="1670" as="targetPoint" />
          </mxGeometry>
        </mxCell>
        <mxCell id="i0R5Lt4Jgc1w6IUPzWkG-82" value="" style="endArrow=classic;html=1;rounded=0;" edge="1" parent="1">
          <mxGeometry width="50" height="50" relative="1" as="geometry">
            <mxPoint x="100" y="1000" as="sourcePoint" />
            <mxPoint x="100" y="770" as="targetPoint" />
          </mxGeometry>
        </mxCell>
        <mxCell id="i0R5Lt4Jgc1w6IUPzWkG-83" value="" style="endArrow=classic;html=1;rounded=0;" edge="1" parent="1">
          <mxGeometry width="50" height="50" relative="1" as="geometry">
            <mxPoint x="90" y="1350" as="sourcePoint" />
            <mxPoint x="90" y="1120" as="targetPoint" />
          </mxGeometry>
        </mxCell>
      </root>
    </mxGraphModel>
  </diagram>
</mxfile>
